<svg width="80" height="104" viewBox="0 0 80 104" fill="none" xmlns="http://www.w3.org/2000/svg">
<g clip-path="url(#clip0_8_955)">
<path d="M67.4282 85.3276C68.5079 85.3276 69.396 86.2171 69.396 87.2984C69.396 88.3791 68.5079 89.2686 67.4282 89.2686C66.3473 89.2686 65.4592 88.3791 65.4592 87.2984C65.4592 86.2171 66.3473 85.3276 67.4282 85.3276ZM66.0025 103.471H68.9736V91.4554H66.0025V103.471Z" fill="#B6B6B6"/>
<path d="M75.3401 87.875L76.7324 87.9954V91.4553H79.7581V93.8588H76.7324V99.2895C76.7324 100.995 77.5975 101.308 79.0852 101.308V103.471H76.3007C74.8124 103.471 73.324 102.99 73.324 100.851V93.8588H71.0908V91.4553H73.324L73.3476 90.4945L75.3401 87.875Z" fill="#B6B6B6"/>
<path fill-rule="evenodd" clip-rule="evenodd" d="M0.638062 94.6018C0.720815 94.333 0.704586 94.0518 0.747314 93.7781C1.14648 91.225 2.31583 89.1767 4.63182 87.9011C5.92664 87.1879 7.33774 86.9346 8.80515 86.9706C10.0064 87.001 11.1709 87.2282 12.2964 87.6534C12.6058 87.7701 12.8919 87.9358 13.1834 88.0898C13.2629 88.1326 13.2856 88.1711 13.2532 88.2611C12.9925 88.978 12.7329 89.6962 12.4819 90.4169C12.4354 90.5516 12.3862 90.5081 12.3018 90.464C10.9015 89.7409 9.41576 89.4131 7.85048 89.6211C5.95315 89.8743 4.71889 90.9699 4.09041 92.7663C3.81186 93.5608 3.71072 94.3845 3.70477 95.2206C3.69612 96.3367 3.81889 97.4341 4.26997 98.4689C4.9585 100.049 6.17166 100.933 7.88025 101.11C9.49582 101.277 11.0503 101.036 12.5182 100.32C12.654 100.253 12.6826 100.288 12.7221 100.412C12.9444 101.104 13.1699 101.796 13.4058 102.482C13.4528 102.619 13.4154 102.673 13.3008 102.733C12.6696 103.068 11.994 103.28 11.3023 103.435C9.71002 103.792 8.10524 103.888 6.49507 103.576C3.6853 103.032 1.91937 101.33 1.08103 98.6216C0.848455 97.8693 0.733255 97.0971 0.675922 96.3131C0.672133 96.2684 0.698638 96.2125 0.639141 96.1834C0.638062 95.6558 0.638062 95.1288 0.638062 94.6018Z" fill="#3F946C"/>
<path fill-rule="evenodd" clip-rule="evenodd" d="M37.7545 99.0973C37.7545 100.409 37.7524 101.72 37.7578 103.031C37.7588 103.174 37.721 103.224 37.5755 103.252C35.9513 103.571 34.3157 103.782 32.6569 103.746C31.7304 103.727 30.8125 103.629 29.9552 103.238C28.7664 102.694 28.132 101.751 27.9897 100.46C27.9318 99.9396 27.9308 99.4194 28.0481 98.9079C28.3234 97.7149 29.0996 96.962 30.2013 96.5175C31.1705 96.1246 32.1922 96.0371 33.2259 96.057C33.7959 96.0687 34.3589 96.1451 34.9144 96.2792C34.9788 96.2947 35.0432 96.3263 35.0442 96.2059C35.0475 95.7584 35.0399 95.3127 34.9128 94.8782C34.6732 94.0626 34.0079 93.5393 33.0955 93.4648C31.9121 93.3674 30.7519 93.507 29.6161 93.8466C29.4863 93.8844 29.4495 93.867 29.4306 93.7379C29.3359 93.0905 29.2364 92.4431 29.1336 91.7969C29.1147 91.6796 29.1245 91.612 29.2634 91.5729C30.9201 91.1117 32.599 90.9112 34.307 91.1905C35.3839 91.3668 36.3255 91.8137 36.9746 92.741C37.4154 93.3705 37.5944 94.0905 37.6869 94.8372C37.8037 95.777 37.7399 96.7218 37.7529 97.6653C37.7594 98.142 37.7545 98.6199 37.7545 99.0973ZM35.042 99.8334C35.042 99.3629 35.0378 98.8912 35.0448 98.42C35.0464 98.3065 35.0118 98.2618 34.9015 98.2376C34.4887 98.1463 34.0723 98.0811 33.6504 98.0731C32.9581 98.0613 32.2674 98.0842 31.6233 98.3853C31.2479 98.5603 30.9455 98.826 30.8384 99.2326C30.621 100.058 30.7498 101.128 32.0257 101.401C32.9965 101.61 33.9695 101.522 34.9426 101.403C35.0539 101.388 35.0426 101.321 35.0426 101.247C35.042 100.776 35.042 100.304 35.042 99.8334Z" fill="#3F946C"/>
<path fill-rule="evenodd" clip-rule="evenodd" d="M59.3907 99.2074C59.3907 100.475 59.388 101.742 59.3939 103.01C59.3939 103.161 59.3647 103.225 59.1977 103.258C57.5729 103.571 55.9378 103.783 54.279 103.746C53.3887 103.726 52.5082 103.631 51.6802 103.274C50.3918 102.718 49.7368 101.711 49.6184 100.332C49.574 99.8219 49.5832 99.3135 49.7108 98.8176C49.9964 97.7065 50.7309 96.9877 51.758 96.5507C52.757 96.1255 53.8139 96.0343 54.8853 96.0566C55.4489 96.0684 56.0054 96.1441 56.5544 96.2788C56.6302 96.2968 56.6805 96.3055 56.6805 96.1969C56.6799 95.786 56.6831 95.3757 56.582 94.9741C56.3619 94.0976 55.682 93.539 54.7279 93.462C53.5499 93.3676 52.3974 93.5073 51.2664 93.8406C51.1425 93.876 51.0949 93.8853 51.0733 93.7283C50.9819 93.0678 50.8753 92.4099 50.7666 91.7525C50.7471 91.6358 50.7948 91.6073 50.8899 91.5781C51.5644 91.3745 52.2535 91.2392 52.9517 91.1566C53.8717 91.0461 54.7944 91.0163 55.715 91.1486C56.8238 91.3087 57.819 91.7004 58.5308 92.6215C59.0051 93.2361 59.2025 93.9573 59.3134 94.709C59.3783 95.1528 59.3923 95.5991 59.3913 96.0467C59.3886 97.1 59.3907 98.1528 59.3907 99.2074ZM56.6793 99.8325C56.6793 99.3675 56.674 98.902 56.6826 98.4371C56.6848 98.3074 56.6442 98.2602 56.5182 98.2322C55.709 98.0479 54.895 98.0175 54.0767 98.1416C53.6322 98.2093 53.2021 98.3359 52.8614 98.6512C52.3054 99.1677 52.3162 99.8095 52.5061 100.467C52.6694 101.035 53.1334 101.277 53.6602 101.397C54.6116 101.611 55.5685 101.523 56.5236 101.41C56.6491 101.396 56.6837 101.35 56.6826 101.228C56.6751 100.764 56.6793 100.297 56.6793 99.8325Z" fill="#3F946C"/>
<path fill-rule="evenodd" clip-rule="evenodd" d="M14.4858 103.451C14.514 103.398 14.5367 103.35 14.5637 103.304C15.9927 100.832 16.93 98.1741 17.526 95.3902C17.8035 94.0966 17.9863 92.7887 18.0729 91.4678C18.0804 91.3567 18.1237 91.3424 18.2178 91.3424C20.7507 91.3443 23.2847 91.3443 25.8181 91.3418C25.9192 91.3418 25.9689 91.3672 25.9549 91.4746C25.9516 91.5044 25.9549 91.5355 25.9549 91.5665C25.9549 95.4615 25.9538 99.3572 25.9592 103.252C25.9592 103.431 25.9154 103.474 25.7391 103.471C24.9197 103.461 24.0997 103.46 23.2792 103.471C23.0981 103.474 23.0764 103.409 23.077 103.254C23.0808 100.198 23.078 97.1418 23.085 94.0854C23.085 93.8936 23.0375 93.8446 22.8471 93.8483C22.2294 93.8607 21.6112 93.8557 20.9936 93.8508C20.8659 93.8501 20.8075 93.8681 20.7848 94.0202C20.4457 96.3436 19.9113 98.6179 19.0362 100.803C18.6906 101.666 18.3038 102.509 17.8711 103.331C17.8305 103.408 17.7992 103.47 17.6872 103.47C16.6406 103.465 15.5946 103.466 14.548 103.466C14.5307 103.465 14.5145 103.458 14.4858 103.451Z" fill="#3F946C"/>
<path fill-rule="evenodd" clip-rule="evenodd" d="M44.0215 91.3449C45.7231 91.3449 47.4241 91.348 49.1251 91.3418C49.283 91.3406 49.3307 91.3735 49.3274 91.5405C49.3166 92.1959 49.3193 92.8508 49.3263 93.5063C49.3279 93.6472 49.296 93.6894 49.1489 93.6894C47.9741 93.6813 46.7994 93.6913 45.6246 93.6795C45.4294 93.677 45.4007 93.7378 45.4007 93.9141C45.4061 97.0245 45.4029 100.135 45.4089 103.246C45.4093 103.416 45.3813 103.473 45.1963 103.471C44.3947 103.458 43.5932 103.46 42.7915 103.468C42.6401 103.471 42.6012 103.434 42.6012 103.28C42.6066 100.151 42.6044 97.0202 42.6087 93.8918C42.6093 93.7285 42.5752 93.6789 42.4027 93.6801C41.2284 93.6888 40.0537 93.682 38.8789 93.6888C38.7383 93.6894 38.7091 93.6503 38.7113 93.5156C38.7178 92.8496 38.7183 92.1811 38.7107 91.5138C38.7091 91.376 38.7448 91.3418 38.8827 91.3418C40.5951 91.3474 42.3086 91.3449 44.0215 91.3449Z" fill="#3F946C"/>
<path d="M62.6574 103.285C63.4289 103.285 64.0546 102.658 64.0546 101.886C64.0546 101.114 63.4289 100.488 62.6574 100.488C61.886 100.488 61.2605 101.114 61.2605 101.886C61.2605 102.658 61.886 103.285 62.6574 103.285Z" fill="#3F946C"/>
<path d="M60.4687 42.7135C60.4687 34.9423 57.6032 27.8466 52.882 22.407C52.9436 22.2105 52.9863 22.0059 52.9863 21.7888C52.9863 20.6492 52.0631 19.7246 50.924 19.7246C49.785 19.7246 48.8617 20.6487 48.8617 21.7888C48.8617 22.9289 49.785 23.853 50.924 23.853C51.116 23.853 51.2983 23.8183 51.4747 23.7691C55.8551 28.8557 58.5097 35.4722 58.5097 42.7135C58.5097 49.7815 55.9855 56.2583 51.7916 61.293C51.5276 61.1695 51.2356 61.0959 50.924 61.0959C49.7855 61.0959 48.8617 62.02 48.8617 63.1603C48.8617 64.3 49.785 65.2242 50.924 65.2242C52.0631 65.2242 52.9863 64.3 52.9863 63.1603C52.9863 63.0809 52.9718 63.0064 52.9631 62.9294C57.6367 57.5024 60.4687 50.4408 60.4687 42.7135Z" fill="#B6B6B6"/>
<path d="M40.3495 1.24756C39.5815 1.24756 38.9195 1.67253 38.5647 2.29563C18.4986 3.18184 2.38128 19.2673 1.42665 39.3334C0.705677 39.655 0.20105 40.3755 0.20105 41.2168C0.20105 42.3563 1.12431 43.281 2.26337 43.281C3.40243 43.281 4.32569 42.3569 4.32569 41.2168C4.32569 40.5038 3.96439 39.8753 3.41487 39.5044C4.28242 20.4669 19.5332 5.18921 38.5468 4.29488C38.8968 4.93585 39.5685 5.37598 40.3495 5.37598C41.488 5.37598 42.4119 4.45187 42.4119 3.31177C42.4113 2.17166 41.488 1.24756 40.3495 1.24756Z" fill="#B6B6B6"/>
<path d="M75.9702 43.9744C76.0415 43.0633 76.0893 42.1462 76.0893 41.2167C76.0893 21.3763 60.0202 5.29248 40.1986 5.29248C27.5759 5.29248 16.4859 11.8219 10.0875 21.6822C10.042 21.6708 9.99769 21.654 9.94845 21.654C9.63421 21.654 9.37952 21.909 9.37952 22.2236C9.37952 22.5381 9.63421 22.7931 9.94845 22.7931C10.2627 22.7931 10.5174 22.5381 10.5174 22.2236C10.5174 22.1001 10.4699 21.9924 10.4033 21.8987C16.7342 12.1569 27.6964 5.70716 40.1731 5.70716C59.7801 5.70716 75.6744 21.6161 75.6744 41.241C75.6744 42.1467 75.6279 43.041 75.5597 43.9289C75.3904 43.9754 75.2422 44.0902 75.1758 44.2667C75.0642 44.5606 75.2118 44.8898 75.5057 45.0008C75.7997 45.1123 76.1284 44.9645 76.24 44.67C76.3417 44.3999 76.2189 44.1075 75.9702 43.9744Z" fill="#B6B6B6"/>
<path d="M74.3393 51.73C74.0453 51.6185 73.7173 51.7663 73.6056 52.0608C73.5176 52.293 73.5957 52.5426 73.7756 52.6942C69.0121 66.6968 55.7745 76.7748 40.1732 76.7748C20.5662 76.7748 4.67131 60.866 4.67131 41.2412C4.67131 37.4836 5.26734 33.8684 6.34802 30.4692C6.65195 30.4572 6.89536 30.2109 6.89536 29.904C6.89536 29.5895 6.6406 29.3345 6.32637 29.3345C6.01211 29.3345 5.75737 29.5895 5.75737 29.904C5.75737 30.0913 5.85364 30.2499 5.99318 30.3533C4.90658 33.7823 4.30676 37.4273 4.30676 41.2163C4.30676 61.0561 20.3759 77.1398 40.1981 77.1398C55.9568 77.1398 69.3303 66.968 74.1563 52.8306C74.3783 52.8231 74.5861 52.685 74.6698 52.4636C74.7814 52.1702 74.6332 51.8416 74.3393 51.73Z" fill="#B6B6B6"/>
<path d="M69.7401 25.5297C69.6849 25.5086 69.6285 25.5059 69.5733 25.5021C63.9659 15.0501 52.9538 7.93604 40.2716 7.93604C21.9081 7.93604 7.02185 22.8359 7.02185 41.2168C7.02185 44.879 7.62601 48.3974 8.71804 51.6926C8.68554 51.7354 8.65205 51.7765 8.63258 51.829C8.52114 52.123 8.66935 52.4522 8.963 52.5637C9.2567 52.6752 9.58501 52.5268 9.69646 52.2329C9.80784 51.939 9.65968 51.6098 9.36598 51.4988C9.32325 51.4826 9.27996 51.4831 9.23674 51.4771C8.17069 48.2485 7.58111 44.8028 7.58111 41.2168C7.58111 23.1455 22.217 8.49636 40.271 8.49636C52.7348 8.49636 63.5578 15.4853 69.0722 25.7544C69.0486 25.7896 69.0201 25.8204 69.0052 25.861C68.8942 26.155 69.0418 26.4836 69.3358 26.5951C69.6297 26.7066 69.9578 26.5583 70.0688 26.2644C70.1823 25.9704 70.0341 25.6412 69.7401 25.5297Z" fill="#B6B6B6"/>
<path d="M72.7393 34.1025C72.7901 34.0489 72.8317 33.9845 72.8602 33.9108C72.9706 33.6169 72.823 33.2883 72.5297 33.1768C72.2351 33.0652 71.907 33.2136 71.796 33.5076C71.6844 33.8015 71.832 34.1306 72.1259 34.2416C72.1501 34.2508 72.1749 34.2481 72.2004 34.2535C72.6878 36.4991 72.9625 38.8237 72.9625 41.216C72.9625 59.2866 58.3269 73.936 40.2727 73.936C29.2023 73.936 19.4224 68.4234 13.5091 59.9963C13.5183 59.9785 13.5329 59.9655 13.5405 59.946C13.6519 59.6515 13.5037 59.3229 13.21 59.2119C12.9163 59.1004 12.5875 59.2482 12.476 59.5427C12.3646 59.8366 12.5128 60.1652 12.8065 60.2768C12.885 60.3065 12.965 60.3152 13.0434 60.3103C19.0579 68.8871 29.0087 74.4959 40.2722 74.4959C58.6357 74.4959 73.5225 59.5957 73.5225 41.2154C73.5225 38.7717 73.2404 36.3963 72.7393 34.1025Z" fill="#B6B6B6"/>
<path d="M29.232 73.3947C29.0378 73.3202 28.8339 73.3687 28.682 73.4891C15.5226 68.6785 6.12295 56.0525 6.12295 41.2165C6.12295 30.1511 11.3515 20.3096 19.4672 14.025C19.5429 14.0624 19.6251 14.0878 19.7149 14.0878C20.0292 14.0878 20.2839 13.8328 20.2839 13.5178C20.2839 13.2032 20.0292 12.9482 19.7149 12.9482C19.4007 12.9482 19.146 13.2032 19.146 13.5178C19.146 13.5221 19.1481 13.5259 19.1481 13.5297C10.8707 19.9209 5.53503 29.9432 5.53503 41.2165C5.53503 56.308 15.0981 69.1509 28.4834 74.0428C28.5224 74.2259 28.6408 74.3891 28.8291 74.4599C29.1228 74.5716 29.451 74.4233 29.5625 74.129C29.6739 73.8348 29.5257 73.5052 29.232 73.3947Z" fill="#B6B6B6"/>
<path d="M40.4544 6.26465C35.8544 6.26465 31.4675 7.16599 27.445 8.78359C27.3623 8.73598 27.2709 8.70184 27.1686 8.70184C26.8544 8.70184 26.5996 8.95684 26.5996 9.27136C26.5996 9.58588 26.8544 9.84087 27.1686 9.84087C27.4715 9.84087 27.7127 9.60214 27.7311 9.30388C31.667 7.7296 35.9571 6.85257 40.4544 6.85257C59.4156 6.85257 74.787 22.2375 74.787 41.216C74.787 60.1945 59.4156 75.5791 40.4544 75.5791C39.6221 75.5791 38.7999 75.5376 37.9827 75.478C37.9243 75.3389 37.8139 75.2229 37.6625 75.1651C37.3688 75.054 37.0405 75.2018 36.9291 75.496C36.8177 75.7902 36.9659 76.1186 37.2596 76.2303C37.4916 76.3178 37.7409 76.2396 37.8918 76.0602C38.7388 76.1235 39.5912 76.1676 40.4544 76.1676C59.7401 76.1676 75.3743 60.5193 75.3743 41.216C75.3737 21.9127 59.7401 6.26465 40.4544 6.26465Z" fill="#B6B6B6"/>
<path d="M79.2373 41.2166C79.2373 29.3202 73.9058 18.6776 65.5077 11.5332C65.5225 11.4331 65.5387 11.3334 65.5387 11.229C65.5387 10.0894 64.6159 9.16476 63.4766 9.16476C63.1877 9.16476 62.9129 9.2254 62.663 9.3326C60.5401 7.83951 58.2652 6.54836 55.8605 5.49812C55.8351 4.38021 54.9259 3.48047 53.8031 3.48047C52.6646 3.48047 51.7408 4.40458 51.7408 5.54468C51.7408 6.68479 52.664 7.60892 53.8031 7.60892C54.2201 7.60892 54.6073 7.48278 54.9324 7.26944C56.8584 8.10152 58.6968 9.0971 60.4368 10.2312C60.2902 10.229 60.1469 10.2182 60.0003 10.2182C56.5642 10.2182 53.2633 10.7867 50.1749 11.8207C47.0861 10.7867 43.7852 10.2182 40.349 10.2182C23.2441 10.2182 9.37853 24.0971 9.37853 41.2172C9.37853 45.0911 10.1022 48.7924 11.4008 52.2105C11.2575 52.4412 11.1569 52.7016 11.112 52.9804C9.63323 49.3359 8.81165 45.3542 8.81165 41.1782C8.81165 23.8405 22.8536 9.78517 40.1754 9.78517C41.5762 9.78517 42.9527 9.88585 44.3044 10.0651C44.3909 10.2686 44.5927 10.4115 44.828 10.4115C45.1422 10.4115 45.397 10.1565 45.397 9.84203C45.397 9.52745 45.1422 9.27251 44.828 9.27251C44.5678 9.27251 44.3568 9.45166 44.2892 9.69045C42.9489 9.51665 41.5854 9.41863 40.1981 9.41863C22.6859 9.41863 8.48985 23.6283 8.48985 41.156C8.48985 45.7678 9.48073 50.1453 11.2483 54.0994C13.1787 58.4178 16.0425 62.2241 19.5868 65.2627C19.8443 65.7425 20.2818 66.1044 20.8124 66.2627C26.1734 70.4153 32.8948 72.8933 40.1981 72.8933C44.0631 72.8933 47.7664 72.1987 51.1917 70.9312C53.9842 71.7617 56.9385 72.2154 60.0003 72.2154C60.1463 72.2154 60.2897 72.2049 60.4352 72.203C54.6441 75.982 47.7362 78.188 40.3079 78.188C25.5969 78.188 12.9044 69.5755 6.96464 57.1169C7.21506 56.7753 7.36755 56.3579 7.36755 55.9021C7.36755 54.7625 6.44433 53.8379 5.30524 53.8379C4.16618 53.8379 3.24292 54.762 3.24292 55.9021C3.24292 56.9918 4.08937 57.8754 5.15867 57.9512C11.4143 71.0925 24.7948 80.1824 40.3074 80.1824C48.9542 80.1824 56.9374 77.3538 63.3979 72.5792C63.5994 72.6456 63.8103 72.6897 64.0335 72.6897C65.1728 72.6897 66.0956 71.7654 66.0956 70.6258C66.0956 69.4855 65.1734 68.5612 64.0335 68.5612C63.05 68.5612 62.2308 69.2509 62.0242 70.1733C61.3552 70.2223 60.6818 70.2546 59.9997 70.2546C57.9986 70.2546 56.0499 70.0379 54.1633 69.6512C64.6711 64.4818 71.9058 53.6662 71.9058 41.1554C71.9058 28.7128 64.7461 17.9521 54.3299 12.7507C56.165 12.3848 58.0575 12.1791 59.9997 12.1791C60.5661 12.1791 61.1269 12.1991 61.684 12.2332C62.0373 12.8628 62.7033 13.2932 63.476 13.2932C63.7675 13.2932 64.0441 13.2309 64.2965 13.1216C72.2177 19.9 77.2441 29.9665 77.2441 41.2166C77.2441 47.4065 75.7135 53.2337 73.0252 58.3588C72.9011 58.3355 72.7734 58.3204 72.6425 58.3204C71.5039 58.3204 70.5799 59.2444 70.5799 60.3846C70.5799 61.5247 71.5033 62.4488 72.6425 62.4488C73.7818 62.4488 74.7046 61.5247 74.7046 60.3846C74.7046 60.1409 74.6549 59.9098 74.5774 59.6932C77.5449 54.193 79.2373 47.9046 79.2373 41.2166ZM69.3607 41.2166C69.3607 53.4059 61.8533 63.8338 51.2172 68.1398C46.0497 62.7438 43.3389 55.6498 43.3389 48.2543C43.3389 41.058 45.9594 34.4783 50.2907 29.4052C50.4913 29.4707 50.7023 29.5151 50.9246 29.5151C52.0631 29.5151 52.9869 28.591 52.9869 27.4509C52.9869 26.3107 52.0636 25.3867 50.9246 25.3867C49.7855 25.3867 48.8623 26.3107 48.8623 27.4509C48.8623 27.6344 48.8942 27.8092 48.939 27.9787C44.234 33.4139 41.3805 40.4977 41.3805 48.2543C41.3805 55.672 43.995 62.471 48.3376 67.8046C38.1245 63.3093 30.9893 53.0995 30.9893 41.2166C30.9893 28.6321 38.9893 17.9202 50.1755 13.8898C61.3611 17.9197 69.3607 28.6321 69.3607 41.2166ZM47.1867 12.997C36.4786 17.8764 29.0303 28.6727 29.0303 41.216C29.0303 53.7605 36.4791 64.5557 47.1872 69.4352C46.6479 69.5656 46.1033 69.6804 45.5532 69.781C34.6797 64.8524 27.1119 53.9023 27.1119 41.1771C27.1119 28.5016 34.6207 17.5873 45.4261 12.6306C46.0184 12.7361 46.6063 12.8568 47.1867 12.997ZM43.1891 12.3306C43.7267 12.3837 44.2595 12.4519 44.7885 12.5337C34.1415 17.6522 26.7895 28.5422 26.7895 41.1549C26.7895 53.8433 34.2297 64.791 44.9799 69.8697C44.3888 69.9653 43.7922 70.0423 43.1891 70.1019V70.0895C32.891 64.5818 25.8814 53.7199 25.8814 41.2166C25.8814 28.7127 32.8905 17.8515 43.1891 12.3431V12.3306ZM40.1981 12.1823C40.249 12.1823 40.2987 12.1785 40.349 12.1785C40.9775 12.1785 41.6006 12.2023 42.2188 12.2424C32.1327 17.957 25.3216 28.7875 25.3216 41.2166C25.3216 53.6451 32.1327 64.4756 42.2193 70.1906C41.6011 70.231 40.978 70.2546 40.3496 70.2546C40.2987 70.2546 40.249 70.2521 40.1987 70.2515V70.1217C30.7108 64.007 24.4227 53.3507 24.4227 41.2166C24.4227 29.0825 30.7113 18.4258 40.1987 12.3111L40.1981 12.1823ZM12.026 55.024C12.3495 55.2346 12.7335 55.3596 13.1478 55.3596C14.2863 55.3596 15.2101 54.4356 15.2101 53.2954C15.2101 52.1553 14.2869 51.2312 13.1478 51.2312C13.1392 51.2312 13.1316 51.2334 13.1235 51.2339C11.9741 48.1103 11.3375 44.7387 11.3375 41.216C11.3375 26.2675 22.6249 13.9618 37.133 12.3599C28.3223 18.9066 22.6059 29.3895 22.6059 41.2166C22.6059 51.3287 26.7922 60.4501 33.5114 66.9771C33.5071 66.9877 33.499 66.9933 33.4946 67.0038C33.3832 67.2981 33.5308 67.6271 33.8251 67.7382C34.1188 67.8493 34.4476 67.7015 34.5585 67.4073C34.6699 67.1131 34.5223 66.7847 34.228 66.673C34.0614 66.6103 33.8879 66.637 33.745 66.7202C27.1049 60.2639 22.971 51.2393 22.971 41.2415C22.971 29.5265 28.6376 19.1383 37.3743 12.6652V12.3301C38.0054 12.2657 38.6448 12.2294 39.2879 12.2061C29.9693 18.4816 23.8342 29.1291 23.8342 41.2166C23.8342 53.3079 29.9736 63.958 39.297 70.2335C33.3702 70.0206 27.9005 68.0256 23.3966 64.7711C23.4334 64.6172 23.4583 64.4583 23.4583 64.2919C23.4583 63.1523 22.5351 62.2279 21.396 62.2279C20.2569 62.2279 19.3337 63.1523 19.3337 64.2919C19.3337 64.4185 19.3488 64.5408 19.3705 64.6606C16.3405 61.9686 13.8347 58.7004 12.026 55.024ZM40.1759 72.5699C33.1506 72.5699 26.6651 70.2577 21.4371 66.3521C21.6605 66.3465 21.873 66.303 22.0737 66.2329C27.1968 69.9895 33.5114 72.2148 40.3496 72.2148C43.7857 72.2148 47.0866 71.6462 50.1755 70.6127C50.3372 70.6667 50.5016 70.7145 50.6639 70.7654C47.3835 71.9299 43.8554 72.5699 40.1759 72.5699ZM71.5405 41.1771C71.5405 53.6933 64.2208 64.4955 53.6332 69.5376C53.4758 69.5029 53.3152 69.4756 53.1584 69.4371C63.8692 64.5588 71.3204 53.7621 71.3204 41.216C71.3204 28.6722 63.8717 17.8764 53.1643 12.997C53.3531 12.9516 53.5462 12.918 53.7366 12.8758C64.2649 17.9392 71.5405 28.703 71.5405 41.1771Z" fill="#B6B6B6"/>
</g>
<defs>
<clipPath id="clip0_8_955">
<rect width="80" height="103.04" fill="white" transform="translate(0 0.746094)"/>
</clipPath>
</defs>
</svg>
