<svg width="24" height="29" viewBox="0 0 24 29" fill="none" xmlns="http://www.w3.org/2000/svg">
<path d="M19.3846 7.80454C19.3846 11.8764 16.0718 15.1891 12 15.1891C7.92818 15.1891 4.61538 11.8764 4.61538 7.80454C4.61538 3.73272 7.92818 0.419922 12 0.419922C16.0718 0.419922 19.3846 3.73272 19.3846 7.80454ZM7.29898 16.1402C2.86523 18.0314 0 22.3691 0 27.1891C0 27.6994 0.413311 28.1122 0.923077 28.1122M23.0769 28.1122C23.5867 28.1122 24 27.6994 24 27.1891C24 22.3691 21.1348 18.0314 16.701 16.1402C16.4585 16.0356 16.184 16.041 15.9474 16.1537C13.4477 17.3238 10.5523 17.3238 8.05258 16.1537C7.81505 16.041 7.54057 16.0356 7.29898 16.1402C2.86523 18.0314 0 22.3691 0 27.1891C0 27.6994 0.413311 28.1122 0.923077 28.1122H23.0769Z" fill="#81CCA4"/>
</svg>
